<svg width="30" height="30" viewBox="0 0 30 31" fill="none" xmlns="http://www.w3.org/2000/svg">
<g clip-path="url(#clip0_56_191)">
<path d="M10.7679 6.78125C10.7679 4.64395 12.6657 2.90625 15 2.90625C17.3343 2.90625 19.2321 4.64395 19.2321 6.78125V9.6875H10.7679V6.78125ZM7.59375 9.6875H3.36161C1.60924 9.6875 0.1875 10.9893 0.1875 12.5938V25.1875C0.1875 28.3965 3.03097 31 6.53571 31H23.4643C26.969 31 29.8125 28.3965 29.8125 25.1875V12.5938C29.8125 10.9893 28.3908 9.6875 26.6384 9.6875H22.4062V6.78125C22.4062 3.0334 19.0933 0 15 0C10.9067 0 7.59375 3.0334 7.59375 6.78125V9.6875ZM9.1808 12.5938C9.60172 12.5938 10.0054 12.7468 10.303 13.0194C10.6007 13.2919 10.7679 13.6615 10.7679 14.0469C10.7679 14.4323 10.6007 14.8019 10.303 15.0744C10.0054 15.3469 9.60172 15.5 9.1808 15.5C8.75989 15.5 8.35622 15.3469 8.05859 15.0744C7.76096 14.8019 7.59375 14.4323 7.59375 14.0469C7.59375 13.6615 7.76096 13.2919 8.05859 13.0194C8.35622 12.7468 8.75989 12.5938 9.1808 12.5938ZM19.2321 14.0469C19.2321 13.6615 19.3994 13.2919 19.697 13.0194C19.9946 12.7468 20.3983 12.5938 20.8192 12.5938C21.2401 12.5938 21.6438 12.7468 21.9414 13.0194C22.239 13.2919 22.4062 13.6615 22.4062 14.0469C22.4062 14.4323 22.239 14.8019 21.9414 15.0744C21.6438 15.3469 21.2401 15.5 20.8192 15.5C20.3983 15.5 19.9946 15.3469 19.697 15.0744C19.3994 14.8019 19.2321 14.4323 19.2321 14.0469Z" fill="#003049"/>
</g>
<defs>
<clipPath id="clip0_56_191">
<rect width="29.625" height="31" fill="white" transform="translate(0.1875)"/>
</clipPath>
</defs>
</svg>
