<?xml version="1.0" encoding="utf-8"?>
<!-- Generator: Adobe Illustrator 27.5.0, SVG Export Plug-In . SVG Version: 6.00 Build 0)  -->
<svg version="1.1" xmlns="http://www.w3.org/2000/svg" xmlns:xlink="http://www.w3.org/1999/xlink" x="0px" y="0px"
	 viewBox="0 0 1200 1200" style="enable-background:new 0 0 1200 1200;" xml:space="preserve">
<g id="BG">
	<rect y="0" style="fill:#A70302;" width="885" height="620"/>
</g>
<g id="Design">
	<g>
		<g>
			<path d="M418.5,447.849L418.5,447.849c-3.482-6.749-8.028-12.716-13.512-17.736c-5.463-4.996-12.893-10.886-22.084-17.506
				c-13.891-9.959-23.418-16.999-28.319-20.922c-4.872-3.898-8.747-8.1-11.52-12.49c-2.751-4.353-4.146-9.653-4.146-15.752
				c0-7.383,2.332-13.199,6.933-17.285c4.616-4.102,10.724-6.181,18.153-6.181c8.159,0,15.462,2.801,21.706,8.325
				c6.276,5.557,11.319,12.879,14.988,21.764c3.674,8.905,5.865,18.358,6.513,28.096l0.031,0.467h6.722v-0.5
				c0-29.543,0.411-50.751,1.223-63.034l0.035-0.533h-6.73L408.439,335c-0.48,3.88-1.126,6.739-1.919,8.497
				c-0.733,1.626-1.746,2.418-3.094,2.418c-0.982,0-2.022-0.26-3.09-0.772c-1.126-0.537-2.886-1.486-5.23-2.82
				c-5.559-3.198-11.4-5.759-17.362-7.612c-5.983-1.856-13.901-2.797-23.532-2.797c-11.271,0-21.752,1.793-31.148,5.329
				c-9.431,3.549-17.104,9.099-22.809,16.497c-5.714,7.413-8.611,16.661-8.611,27.487c0,8.961,1.979,17.001,5.88,23.896
				c3.885,6.871,8.863,12.963,14.799,18.105c5.901,5.117,14.01,11.239,24.1,18.197c8.264,5.679,15.003,10.821,20.028,15.287
				c4.992,4.441,9.014,9.404,11.952,14.751c2.925,5.325,4.407,11.418,4.407,18.112c0,7.712-2.657,13.821-7.898,18.157
				c-5.268,4.359-12.575,6.57-21.718,6.57c-14.674,0-25.689-6.364-32.741-18.917c-7.112-12.654-11.251-29.344-12.302-49.604
				l-0.025-0.474h-6.729v0.5c0,36.65-0.37,61.849-1.101,74.896l-0.029,0.528h6.717l0.061-0.43c0.56-3.968,1.247-6.849,2.04-8.564
				c0.732-1.587,1.745-2.359,3.097-2.359c1.768,0,4.518,1.204,8.223,3.605c5.882,2.947,12.279,5.315,19.015,7.037
				c6.747,1.727,15.377,2.602,25.649,2.602c12.651,0,24.283-1.92,34.574-5.707c10.322-3.798,18.675-9.644,24.825-17.376
				c6.165-7.748,9.291-17.38,9.291-28.628C423.759,462.547,421.99,454.619,418.5,447.849z"/>
			<path d="M747.081,472.926c0-9.62,0.246-17.585,0.732-23.673l0.044-0.54h-6.716l-0.072,0.413
				c-1.86,10.575-5.55,20.899-10.964,30.684c-5.414,9.783-11.618,17.78-18.439,23.769c-6.773,5.943-13.066,8.957-18.707,8.957
				h-8.325c-3.748,0-6.481-0.368-8.122-1.093c-1.589-0.701-2.659-2.063-3.273-4.161c-0.637-2.166-0.959-5.705-0.959-10.518V363.442
				c0-6.391,0.506-11.089,1.503-13.963c0.979-2.825,2.727-4.707,5.345-5.753c2.671-1.067,7.043-1.735,12.995-1.983l0.479-0.02
				v-6.176l-0.524,0.025c-10.23,0.502-25.133,0.756-44.293,0.756c-20.134,0-35.159-0.254-44.658-0.756l-0.526-0.027v6.175
				l0.477,0.023c5.214,0.248,9.045,0.913,11.386,1.974c2.26,1.027,3.837,2.96,4.686,5.745c0.88,2.884,1.325,7.588,1.325,13.981
				v128.152c0,6.396-0.426,11.103-1.266,13.987c-0.811,2.783-2.366,4.714-4.624,5.738c-2.336,1.062-6.208,1.726-11.451,1.975
				c-2.394-0.159-4.879-1.531-7.39-4.078c-2.551-2.585-4.902-6.664-6.988-12.123l-60.857-161.557l-0.381,0.037
				c-3.471,0.333-7.862,0.502-13.052,0.502c-5.19,0-9.623-0.169-13.175-0.502l-0.38-0.036l-55.839,147.809
				c-3.8,10.164-7.584,17.629-11.244,22.188c-3.619,4.505-7.449,7.118-11.384,7.766l-0.419,0.069v6.149l0.551-0.056
				c4.94-0.501,11.432-0.754,19.293-0.754c9.331,0,20.363,0.254,32.789,0.756l0.52,0.021v-6.175l-0.483-0.017
				c-7.378-0.248-12.993-1.661-16.689-4.201c-3.634-2.495-5.476-7.236-5.476-14.093c0-7.891,2.708-19.163,8.049-33.505l4.164-11.277
				h49.859l14.819,42.053c2.011,5.472,3.03,9.531,3.03,12.063c0,3.186-1.25,5.35-3.822,6.615c-2.658,1.308-7.143,2.097-13.327,2.346
				l-0.479,0.019v6.181l0.528-0.029c8.928-0.502,23.088-0.756,42.085-0.756c18.267,0,33.624,0.254,45.677,0.756
				c19.335-0.502,48.864-0.756,87.766-0.756c26.796,0,46.106,0.254,57.395,0.756l0.575,0.025l-0.055-0.572
				C747.657,506.986,747.081,491.512,747.081,472.926z M512.535,444.046h-45.462l23.383-62.615L512.535,444.046z"/>
			<path d="M905.739,518.915c-1.135-11.263-1.711-25.845-1.711-43.34c0-9.619,0.246-17.584,0.732-23.673l0.044-0.54h-6.717
				l-0.072,0.415c-2.51,14.513-6.302,26.448-11.269,35.477c-4.954,9.007-10.5,15.546-16.483,19.436
				c-5.968,3.88-11.993,5.848-17.908,5.848h-8.324c-4.491,0-7.77-0.371-9.743-1.104c-1.912-0.709-3.196-2.054-3.927-4.113
				c-0.752-2.119-1.134-5.669-1.134-10.554v-66.729h2.071c5.997,0,11.471,1.482,16.267,4.405c4.805,2.93,8.806,6.989,11.892,12.067
				c3.094,5.095,5.193,10.912,6.239,17.291l0.068,0.419h6.711l-0.033-0.531c-1.056-16.974-1.591-29.313-1.591-36.679l-0.122-11.599
				c0-6.621,0.329-15.055,0.978-25.068l0.034-0.533h-6.698l-0.079,0.403c-1.046,5.301-3.126,10.595-6.183,15.734
				c-3.055,5.133-6.983,9.453-11.678,12.842c-4.663,3.369-9.981,5.077-15.806,5.077h-2.071v-65.594
				c0-4.801,0.382-8.331,1.136-10.494c0.73-2.1,2.015-3.465,3.925-4.173c1.974-0.733,5.252-1.104,9.743-1.104h3.305
				c11.23,0,21.014,4.339,29.079,12.897c8.093,8.586,13.671,22.988,16.58,42.805l0.064,0.427h6.743l-0.061-0.555
				c-0.485-4.411-0.731-10.673-0.731-18.613c0-12.738,0.576-27.324,1.713-43.354l0.04-0.563l-0.564,0.027
				c-10.313,0.502-27.934,0.756-52.373,0.756c-38.901,0-68.431-0.254-87.766-0.756l-0.513-0.014v6.161l0.477,0.023
				c5.214,0.248,9.045,0.913,11.386,1.974c2.26,1.027,3.837,2.96,4.687,5.745c0.88,2.884,1.325,7.588,1.325,13.981v128.152
				c0,6.396-0.426,11.103-1.266,13.987c-0.811,2.783-2.366,4.714-4.624,5.738c-2.336,1.062-6.208,1.726-11.508,1.974l-0.477,0.022
				v6.162l0.513-0.014c19.335-0.502,48.864-0.756,87.766-0.756c26.796,0,46.105,0.254,57.394,0.756l0.578,0.025L905.739,518.915z"/>
		</g>
		<g>
			<path d="M337.433,724.058c-3.416-2.003-8.86-3.019-16.183-3.019h-18.134c-2.947,0-5.186-0.122-6.656-0.362
				c-1.395-0.228-2.434-0.667-3.091-1.305c-0.659-0.643-1.156-1.677-1.477-3.074l-0.089-0.388h-2.457l0.057,0.55
				c0.145,1.426,0.218,3.419,0.218,5.923c0,3.395-0.074,6.102-0.22,8.044l-0.04,0.537h2.476l0.063-0.427
				c0.33-2.223,0.858-3.811,1.57-4.719c0.688-0.879,1.789-1.455,3.271-1.713c1.579-0.275,4.23-0.414,7.88-0.414h17.474
				c6.124,0,10.889,0.941,14.161,2.799c3.227,1.831,4.795,4.866,4.795,9.28c0,1.958-0.383,3.571-1.138,4.797
				c-0.742,1.206-2.019,2.128-3.795,2.741c-1.832,0.635-4.377,0.957-7.563,0.957h-30.689c-1.82,0-3.149-0.139-3.949-0.412
				c-0.72-0.246-1.197-0.681-1.461-1.331c-0.294-0.726-0.48-1.941-0.551-3.611l-0.021-0.479h-2.51l0.026,0.525
				c0.146,2.922,0.22,7.252,0.22,12.87c0,5.71-0.074,9.956-0.22,12.622l-0.029,0.527h2.51l0.022-0.476
				c0.071-1.474,0.253-2.534,0.542-3.15c0.256-0.548,0.725-0.914,1.43-1.12c0.796-0.231,2.139-0.349,3.99-0.349h23.604
				c3.359,0,6.247-0.161,8.584-0.479c2.368-0.322,4.481-0.929,6.28-1.802c1.827-0.886,3.383-2.171,4.625-3.822
				c2.478-3.305,3.733-7.957,3.733-13.827C344.694,732.159,342.251,726.811,337.433,724.058z"/>
			<path d="M343.641,685.341h-2.737v0.5c0,2.286-0.153,3.97-0.456,5.007c-0.277,0.947-0.814,1.577-1.643,1.929
				c-0.9,0.382-2.384,0.575-4.411,0.575h-12.275v-2.17c0-5.766-0.869-10.474-2.584-13.992c-1.726-3.544-3.925-6.087-6.535-7.561
				c-2.599-1.465-5.354-2.208-8.193-2.208c-3.055,0-5.772,0.842-8.074,2.502c-2.298,1.656-4.104,4.18-5.369,7.5
				c-1.253,3.289-1.888,7.386-1.888,12.177c0,0.916,0.025,2.582,0.074,5c0.049,2.409,0.073,4.596,0.073,6.56
				c0,5.5-0.074,9.664-0.22,12.376l-0.028,0.527h2.509l0.022-0.476c0.071-1.452,0.254-2.507,0.543-3.135
				c0.258-0.56,0.733-0.937,1.451-1.154c0.807-0.242,2.142-0.365,3.968-0.365h37.297c1.829,0,3.166,0.118,3.974,0.35
				c0.716,0.206,1.189,0.577,1.445,1.134c0.29,0.631,0.473,1.697,0.543,3.17l0.022,0.477h2.491l-0.01-0.509
				c-0.15-8.014-0.221-12.109-0.221-12.885c0-3.372,0.074-8.357,0.221-14.816L343.641,685.341z M319.613,691.884v1.468h-21.746
				c-1.741,0-3.064-0.097-3.931-0.287c-0.768-0.169-1.298-0.474-1.578-0.906c-0.3-0.467-0.452-1.209-0.452-2.207
				c0-2.291,1.034-3.883,3.161-4.869c2.225-1.03,5.772-1.553,10.546-1.553c4.356,0,7.847,0.622,10.372,1.847
				C318.426,686.562,319.613,688.691,319.613,691.884z"/>
			<path d="M343.629,644.545c-0.146-6.459-0.221-11.433-0.221-14.781c0-3.721,0.074-9.024,0.221-15.766l0.011-0.511h-2.516v0.5
				c0,2.284-0.153,3.962-0.457,4.989c-0.275,0.936-0.808,1.562-1.627,1.913c-0.887,0.381-2.363,0.574-4.391,0.574h-42.512
				c0.141-2.558,1.54-4.997,4.164-7.254c2.826-2.431,7.541-4.446,14.016-5.989l0.384-0.092v-2.603l-0.554,0.06
				c-1.273,0.138-3.07,0.208-5.343,0.208c-4.351,0-9.354-0.165-14.875-0.491l-0.547-0.032l0.018,0.547
				c0.146,4.508,0.221,12.388,0.221,23.419c0,11.079-0.074,18.994-0.221,23.525l-0.018,0.547l0.547-0.032
				c5.522-0.326,10.527-0.491,14.875-0.491c2.272,0,4.069,0.07,5.343,0.208l0.554,0.06v-2.603l-0.383-0.092
				c-6.523-1.566-11.252-3.581-14.053-5.988c-2.585-2.221-3.97-4.651-4.125-7.29h42.509c2.026,0,3.503,0.193,4.391,0.574
				c0.819,0.352,1.352,0.978,1.627,1.913c0.304,1.027,0.457,2.705,0.457,4.988v0.5h2.517L343.629,644.545z"/>
			<path d="M302.034,598.494c4.313,2.337,9.333,3.521,14.922,3.521c5.712,0,10.715-1.155,14.869-3.434
				c4.168-2.286,7.391-5.547,9.581-9.691c2.182-4.128,3.288-9.007,3.288-14.499c0-5.333-1.208-10.157-3.59-14.337
				c-2.385-4.185-5.785-7.495-10.107-9.836c-4.314-2.337-9.334-3.521-14.922-3.521c-5.711,0-10.714,1.155-14.869,3.435
				c-4.167,2.286-7.39,5.547-9.581,9.691c-2.182,4.13-3.288,9.008-3.288,14.499c0,5.357,1.208,10.187,3.59,14.355
				C294.313,592.849,297.713,596.153,302.034,598.494z M290.695,574.601c0-2.086,1.029-4.04,3.059-5.807
				c2.086-1.815,5.114-3.281,9.001-4.358c3.916-1.083,8.497-1.633,13.614-1.633c5.099,0,9.684,0.486,13.629,1.444
				c3.912,0.951,6.997,2.308,9.168,4.035c2.133,1.695,3.17,3.602,3.17,5.827c0,2.088-1.029,4.042-3.059,5.807
				c-2.086,1.816-5.114,3.282-9.001,4.358c-3.914,1.083-8.494,1.633-13.614,1.633c-5.099,0-9.684-0.486-13.629-1.444
				c-3.912-0.951-6.997-2.308-9.168-4.035C291.732,578.733,290.695,576.827,290.695,574.601z"/>
		</g>
		<g>
			<path d="M787.964,806.667c4.998,2.538,8.876,6.222,11.633,11.051c2.758,4.83,4.137,10.575,4.137,17.236
				c0,6.517-1.415,12.284-4.244,17.302c-2.829,5.017-6.771,8.91-11.827,11.678c-5.056,2.768-10.815,4.152-17.277,4.152
				c-6.664,0-12.495-1.269-17.492-3.806c-4.998-2.537-8.876-6.221-11.634-11.051c-2.757-4.83-4.136-10.576-4.136-17.237
				c0-6.516,1.414-12.284,4.244-17.301c2.828-5.017,6.764-8.91,11.805-11.678c5.041-2.768,10.808-4.152,17.299-4.152
				C777.135,802.86,782.966,804.129,787.964,806.667z M762.5,808.418c-2.183,2.638-3.871,6.315-5.063,11.03
				c-1.192,4.715-1.788,10.115-1.788,16.198c0,6.114,0.675,11.513,2.025,16.198c1.35,4.686,3.174,8.298,5.472,10.835
				c2.298,2.538,4.825,3.806,7.583,3.806c2.901,0,5.443-1.319,7.626-3.958c2.183-2.638,3.871-6.315,5.063-11.03
				c1.192-4.715,1.788-10.114,1.788-16.198c0-6.113-0.675-11.512-2.024-16.198c-1.351-4.685-3.175-8.297-5.472-10.835
				c-2.299-2.537-4.826-3.806-7.584-3.806C767.225,804.461,764.683,805.78,762.5,808.418z"/>
			<path d="M839.581,804.374c8.645,0,14.792-0.086,18.44-0.26c-0.402,5.536-0.604,10.496-0.604,14.879
				c0,2.74,0.086,4.873,0.259,6.402h-2.025c-1.437-6.834-3.604-11.75-6.506-14.75c-2.901-2.999-6.148-4.498-9.737-4.498h-1.163
				c-1.609,0-2.773,0.13-3.49,0.389c-0.718,0.26-1.214,0.772-1.486,1.536c-0.273,0.764-0.409,1.983-0.409,3.655v22.665h0.904
				c2.097,0,3.985-0.591,5.666-1.773c1.681-1.182,3.066-2.667,4.158-4.455c1.091-1.788,1.823-3.604,2.197-5.45h2.024
				c-0.229,3.46-0.345,6.33-0.345,8.607l0.044,3.979c0,2.538,0.187,6.733,0.56,12.587h-2.024c-0.374-2.22-1.114-4.217-2.22-5.991
				c-1.106-1.773-2.521-3.172-4.243-4.196c-1.724-1.023-3.663-1.535-5.817-1.535h-0.904v20.372c0,2.481,0.251,4.29,0.754,5.429
				c0.502,1.139,1.422,1.896,2.758,2.271c1.335,0.375,3.439,0.562,6.312,0.562v2.033c-7.928-0.173-13.988-0.259-18.182-0.259
				c-0.977,0-6.248,0.086-15.813,0.259v-1.773c1.896-0.086,3.267-0.317,4.114-0.692c0.847-0.375,1.422-1.067,1.724-2.076
				c0.302-1.009,0.452-2.624,0.452-4.844V813.5c0-2.22-0.158-3.835-0.474-4.844c-0.316-1.009-0.898-1.701-1.745-2.076
				c-0.848-0.374-2.205-0.605-4.071-0.692v-1.773C815.525,804.288,825.822,804.374,839.581,804.374z"/>
			<path d="M893.223,804.374c8.645,0,14.792-0.086,18.44-0.26c-0.402,5.536-0.604,10.496-0.604,14.879
				c0,2.74,0.086,4.873,0.259,6.402h-2.025c-1.437-6.834-3.604-11.75-6.506-14.75c-2.901-2.999-6.148-4.498-9.737-4.498h-1.163
				c-1.609,0-2.773,0.13-3.49,0.389c-0.718,0.26-1.214,0.772-1.486,1.536c-0.273,0.764-0.409,1.983-0.409,3.655v22.665h0.904
				c2.097,0,3.985-0.591,5.666-1.773c1.681-1.182,3.066-2.667,4.158-4.455c1.091-1.788,1.823-3.604,2.197-5.45h2.024
				c-0.229,3.46-0.345,6.33-0.345,8.607l0.044,3.979c0,2.538,0.187,6.733,0.56,12.587h-2.024c-0.374-2.22-1.114-4.217-2.22-5.991
				c-1.106-1.773-2.521-3.172-4.243-4.196c-1.724-1.023-3.663-1.535-5.817-1.535h-0.904v20.372c0,2.481,0.251,4.29,0.754,5.429
				c0.502,1.139,1.422,1.896,2.758,2.271c1.335,0.375,3.439,0.562,6.312,0.562v2.033c-7.928-0.173-13.988-0.259-18.182-0.259
				c-0.977,0-6.248,0.086-15.813,0.259v-1.773c1.896-0.086,3.267-0.317,4.114-0.692c0.847-0.375,1.422-1.067,1.724-2.076
				c0.302-1.009,0.452-2.624,0.452-4.844V813.5c0-2.22-0.158-3.835-0.474-4.844c-0.316-1.009-0.898-1.701-1.745-2.076
				c-0.848-0.374-2.205-0.605-4.071-0.692v-1.773C869.167,804.288,879.463,804.374,893.223,804.374z"/>
		</g>
		<path style="fill:#FFFFFF;" d="M523.179,614.378c-14.516,28.482-26.044,56.127-34.59,82.94
			c-8.546,26.814-12.818,54.614-12.818,83.394c0.271,3.181,0.677,9.469,1.221,18.86c0.541,9.391,0.814,15.828,0.814,19.315
			c0,7.119-1.358,13.783-4.07,19.997c-2.715,6.21-6.918,11.248-12.614,15.111c-5.697,3.863-12.752,5.794-21.161,5.794
			c-12.615,0-22.077-4.47-28.385-13.407c-6.308-8.94-9.461-21.36-9.461-37.266c0-23.632,7.427-47.719,22.28-72.26
			c14.854-24.541,31.909-48.816,51.173-72.828c19.26-24.009,31.334-39.272,36.218-45.787H392.958
			c-7.599,0-13.261,0.568-16.989,1.704c-3.732,1.136-6.308,2.993-7.732,5.567c-1.424,2.578-2.543,6.515-3.357,11.816h-9.563
			c0-42.112-0.544-72.032-1.628-89.757c6.237,1.516,26.925,2.273,62.059,2.273h134.29v9.771
			C546.645,567.646,537.693,585.899,523.179,614.378z"/>
		<g>
			<path style="fill:none;" d="M711.491,563.364c-7.121-8.102-15.158-12.157-24.11-12.157c-8.683,0-16.38,4.85-23.095,14.543
				c-6.714,9.696-11.973,23.671-15.768,41.924c-3.799,18.257-5.697,39.805-5.697,64.647c0,26.664,2.102,48.741,6.308,66.238
				c4.203,17.497,9.868,30.3,16.99,38.402c7.121,8.105,15.158,12.157,24.11,12.157c8.68,0,16.411-4.885,23.196-14.657
				c6.781-9.771,12.071-23.82,15.87-42.151c3.796-18.328,5.697-39.914,5.697-64.761c0-26.508-2.136-48.475-6.409-65.898
				C724.31,584.234,718.613,571.47,711.491,563.364z"/>
			<path style="fill:#FFFFFF;" d="M797.253,601.766c-10.31-18.707-24.69-33.211-43.136-43.515
				c-18.448-10.3-39.473-15.452-63.075-15.452c-24.823,0-46.798,5.759-65.925,17.269c-19.126,11.514-33.947,27.193-44.458,47.037
				c-10.514,19.847-15.768,42.038-15.768,66.579c0,24.541,5.22,46.206,15.667,64.988c10.443,18.786,24.89,33.29,43.339,43.515
				c18.446,10.226,39.337,15.338,62.669,15.338c15.554,0,30.003-2.276,43.35-6.816l82.761-127.505
				C812.269,640.189,807.135,619.705,797.253,601.766z M729.294,732.311c-3.799,18.331-9.089,32.381-15.87,42.151
				c-6.785,9.771-14.517,14.657-23.196,14.657c-8.952,0-16.989-4.051-24.11-12.157c-7.122-8.102-12.787-20.905-16.99-38.402
				c-4.206-17.497-6.308-39.574-6.308-66.238c0-24.843,1.898-46.391,5.697-64.647c3.796-18.253,9.055-32.228,15.768-41.924
				c6.715-9.693,14.412-14.543,23.095-14.543c8.952,0,16.989,4.055,24.11,12.157c7.122,8.106,12.819,20.87,17.092,38.288
				c4.273,17.422,6.409,39.389,6.409,65.898C734.992,692.396,733.09,713.983,729.294,732.311z"/>
		</g>
		<g>
			<path d="M810.177,592.69c4.197,2.18,9.04,3.268,14.531,3.268c5.278,0,10.018-1.185,14.215-3.558
				c4.196-2.371,7.495-5.708,9.898-10.011c2.401-4.302,3.603-9.266,3.603-14.892c0-5.736-1.161-10.673-3.484-14.81
				c-2.323-4.137-5.57-7.308-9.74-9.514c-4.171-2.206-9.001-3.31-14.491-3.31c-5.279,0-10.031,1.2-14.254,3.599
				c-4.224,2.399-7.55,5.765-9.978,10.094c-2.429,4.331-3.643,9.281-3.643,14.851c0,5.681,1.174,10.604,3.523,14.768
				C802.706,587.34,805.981,590.511,810.177,592.69z M824.392,542.925c3.114,0,5.516,2.109,7.206,6.329
				c1.689,4.219,2.534,10.411,2.534,18.574c0,16.712-3.037,25.068-9.106,25.068c-3.116,0-5.544-2.095-7.286-6.288
				c-1.742-4.191-2.613-10.342-2.613-18.45C815.126,551.336,818.215,542.925,824.392,542.925z"/>
			<path d="M899.542,627.976c-2.323-4.137-5.57-7.308-9.74-9.515c-4.171-2.205-9.001-3.31-14.491-3.31
				c-5.279,0-10.031,1.2-14.254,3.6c-4.225,2.399-7.55,5.75-9.977,10.052c-2.429,4.303-3.643,9.239-3.643,14.81
				c0,5.737,1.174,10.673,3.523,14.81c2.349,4.137,5.622,7.309,9.819,9.515c4.197,2.205,9.04,3.31,14.531,3.31
				c5.227,0,9.95-1.187,14.175-3.558c4.223-2.371,7.535-5.722,9.938-10.053c2.401-4.329,3.603-9.279,3.603-14.851
				C903.026,637.05,901.865,632.113,899.542,627.976z M875.626,668.185c-3.115,0-5.543-2.11-7.285-6.329
				c-1.742-4.22-2.613-10.354-2.613-18.408c0-16.822,3.089-25.234,9.266-25.234c3.114,0,5.516,2.109,7.206,6.329
				c1.688,4.22,2.534,10.412,2.534,18.574C884.734,659.829,881.697,668.185,875.626,668.185z"/>
			<polygon points="899.971,531.292 896.216,528.576 683.344,857.28 687.1,859.997 899.759,531.62 			"/>
		</g>
	</g>
</g>
</svg>
