<svg width="31" height="31" viewBox="0 0 31 31" fill="none" xmlns="http://www.w3.org/2000/svg">
<g clip-path="url(#clip0_69_35)">
<path d="M30.9009 15.4006C30.9009 6.89303 24.0079 0 15.5003 0C6.99264 0 0.0996094 6.89303 0.0996094 15.4006C0.0996094 23.0873 5.7314 29.4587 13.0939 30.615V19.8525H9.18164V15.4006H13.0939V12.0075C13.0939 8.14806 15.3916 6.01619 18.9107 6.01619C20.5961 6.01619 22.3585 6.31675 22.3585 6.31675V10.1048H20.416C18.5034 10.1048 17.9066 11.2921 17.9066 12.5099V15.4006H22.1778L21.4947 19.8525H17.9066V30.615C25.2691 29.4587 30.9009 23.0873 30.9009 15.4006Z" fill="#FBFBFB"/>
</g>
<defs>
<clipPath id="clip0_69_35">
<rect width="31" height="31" fill="white"/>
</clipPath>
</defs>
</svg>
