<svg width="31" height="31" viewBox="0 0 31 31" fill="none" xmlns="http://www.w3.org/2000/svg">
<g clip-path="url(#clip0_69_37)">
<path d="M15.5068 7.46125C11.2133 7.46125 7.75006 10.9672 7.75006 15.3138C7.75006 19.6603 11.2133 23.1663 15.5068 23.1663C19.8004 23.1663 23.2636 19.6603 23.2636 15.3138C23.2636 10.9672 19.8004 7.46125 15.5068 7.46125ZM15.5068 20.4189C12.7322 20.4189 10.4639 18.1295 10.4639 15.3138C10.4639 12.4981 12.7255 10.2086 15.5068 10.2086C18.2882 10.2086 20.5497 12.4981 20.5497 15.3138C20.5497 18.1295 18.2814 20.4189 15.5068 20.4189ZM25.3901 7.14005C25.3901 8.15834 24.58 8.97162 23.5809 8.97162C22.575 8.97162 21.7716 8.15151 21.7716 7.14005C21.7716 6.12858 22.5817 5.30848 23.5809 5.30848C24.58 5.30848 25.3901 6.12858 25.3901 7.14005ZM30.5275 8.99895C30.4127 6.54547 29.8592 4.37219 28.0837 2.58162C26.315 0.79106 24.1682 0.230655 21.7446 0.107639C19.2468 -0.0358796 11.7601 -0.0358796 9.26226 0.107639C6.84544 0.223821 4.69867 0.784226 2.92319 2.57479C1.14771 4.36536 0.600889 6.53863 0.479373 8.99212C0.337605 11.5208 0.337605 19.0999 0.479373 21.6286C0.594138 24.0821 1.14771 26.2553 2.92319 28.0459C4.69867 29.8365 6.83869 30.3969 9.26226 30.5199C11.7601 30.6634 19.2468 30.6634 21.7446 30.5199C24.1682 30.4037 26.315 29.8433 28.0837 28.0459C29.8524 26.2553 30.406 24.0821 30.5275 21.6286C30.6693 19.0999 30.6693 11.5276 30.5275 8.99895ZM27.3006 24.3418C26.774 25.6813 25.7546 26.7132 24.4247 27.2531C22.4332 28.0527 17.7076 27.8682 15.5068 27.8682C13.306 27.8682 8.57367 28.0459 6.58891 27.2531C5.26574 26.7201 4.24636 25.6881 3.71304 24.3418C2.92319 22.3257 3.10546 17.5417 3.10546 15.3138C3.10546 13.0858 2.92994 8.29503 3.71304 6.28577C4.23961 4.94626 5.25899 3.9143 6.58891 3.37439C8.58042 2.57479 13.306 2.75931 15.5068 2.75931C17.7076 2.75931 22.44 2.58162 24.4247 3.37439C25.7479 3.90746 26.7673 4.93943 27.3006 6.28577C28.0904 8.30186 27.9082 13.0858 27.9082 15.3138C27.9082 17.5417 28.0904 22.3325 27.3006 24.3418Z" fill="#FBFBFB"/>
</g>
<defs>
<clipPath id="clip0_69_37">
<rect width="31" height="31" fill="white"/>
</clipPath>
</defs>
</svg>
