<svg width="105" height="49" viewBox="0 0 105 49" fill="none" xmlns="http://www.w3.org/2000/svg">
<g clip-path="url(#clip0_113_13)">
<path d="M37.7272 0.0557312C36.3852 0.254892 34.3281 0.871343 33.4891 1.34554C33.3655 1.41192 33.1713 1.51624 33.0477 1.57315C32.7829 1.69644 32.7124 1.74386 31.6087 2.52153C28.5977 4.62694 26.567 8.12649 26.1167 11.9769C25.693 15.5998 26.4258 18.995 28.271 21.9729C29.3041 23.6516 31.4937 25.6905 33.0477 26.4398C33.1713 26.4967 33.3655 26.6012 33.4891 26.6674C34.0808 26.9992 35.6082 27.5208 36.7119 27.7676C38.1069 28.071 40.6232 28.0806 41.9653 27.7771C44.4199 27.2174 46.6892 26.0888 48.6316 24.4482C49.5322 23.68 50 23.2058 50 23.0351C50 22.9592 49.7883 22.6557 49.5322 22.3617C47.6868 20.2468 46.4242 18.8432 46.3711 18.8432C46.3447 18.8432 46.0445 19.0803 45.7091 19.3743C43.2103 21.5746 40.6146 22.3902 38.1689 21.7548C35.3257 21.0056 33.3302 18.6725 32.7741 15.4385C32.5621 14.2056 32.5621 13.3805 32.7741 12.1571C33.1802 9.72926 34.4075 7.89888 36.4913 6.5996C37.5683 5.92622 39.9612 5.51844 40.9324 5.83139C41.0824 5.8883 41.3738 5.95469 41.568 5.99261C41.9919 6.06849 42.8659 6.42889 43.3957 6.74184C43.6076 6.87462 43.899 7.04533 44.0404 7.14016C44.4376 7.37726 45.3116 8.14547 45.8061 8.68603C46.0445 8.95157 46.2917 9.16972 46.3447 9.16972C46.4067 9.16972 46.9804 8.49635 47.6337 7.67127C48.2785 6.85565 49.073 5.85037 49.3997 5.43307C49.7352 5.02526 50 4.63643 50 4.57953C50 4.45623 49.4438 3.85876 48.8524 3.36559C47.0423 1.8387 45.0469 0.86186 42.4069 0.207474C41.6741 0.0272797 38.6192 -0.0675581 37.7272 0.0557312Z" fill="#003049"/>
<path d="M53.1001 0.153733C53.0498 0.240666 53 6.47091 53 14.0051C53 26.5816 53.0168 27.7213 53.2669 27.8662C54.0167 28.2911 54 28.5907 54 13.9761C54 6.38396 53.9664 0.144072 53.9166 0.0861168C53.7499 -0.0587719 53.2166 -0.0104751 53.1001 0.153733Z" fill="#003049"/>
<path d="M66.5647 0.0592315C65.7942 0.172955 64.5189 0.476218 64.2887 0.618372C64.1823 0.675234 64.0318 0.72262 63.9521 0.72262C63.8105 0.72262 63.102 1.04484 62.5352 1.35758C61.9152 1.69875 60.9941 2.419 60.4983 2.94972C59.3203 4.1912 58.6649 5.74541 58.5498 7.59343C58.2842 11.8296 60.4273 14.4074 65.5019 15.9332C65.9979 16.0848 66.733 16.3123 67.7868 16.6345C68.1145 16.7292 68.6016 16.8809 68.8763 16.9662C69.1507 17.0515 69.496 17.1841 69.6289 17.2599C69.7707 17.3358 69.9301 17.4021 69.992 17.4021C70.0452 17.4021 70.3464 17.5537 70.6563 17.7338C71.3027 18.1224 72.0113 18.8995 72.091 19.3164C72.1796 19.8093 72.1529 20.52 72.0202 20.8517C71.8341 21.3351 71.2408 21.8753 70.6209 22.1406C70.1073 22.3586 69.9477 22.3775 68.7345 22.3775C67.4062 22.3681 66.3434 22.188 65.4133 21.8089C65.245 21.7331 65.006 21.6478 64.882 21.6194C64.758 21.5815 64.5456 21.4962 64.3949 21.4298C64.2533 21.354 63.837 21.1645 63.4829 21.0034C63.1285 20.8423 62.6325 20.5769 62.3934 20.4253C62.1543 20.2736 61.9242 20.1504 61.8888 20.1504C61.7734 20.141 60.3033 19.089 59.8694 18.691C59.7012 18.5488 59.5153 18.4446 59.4532 18.473C59.3824 18.5014 59.2052 18.7952 59.0458 19.1269C57.8148 21.6857 57 23.4579 57 23.5716C57 23.7043 57.3101 23.9886 58.1424 24.6141C58.5322 24.9079 59.471 25.4766 60.0996 25.7986C61.3485 26.4433 61.9771 26.7084 62.8451 26.9928C64.1823 27.4192 64.5632 27.5331 65.1478 27.6372C65.4665 27.6941 65.9447 27.7794 66.2105 27.8363C66.4761 27.893 67.3176 27.9595 68.0702 27.9878C71.6658 28.1205 74.7214 27.1634 76.6785 25.2965C77.7502 24.2635 78.5296 22.8798 78.8394 21.4298C79.052 20.4537 79.052 18.8426 78.8483 17.876C78.6889 17.1273 78.3434 16.1322 78.1752 15.9521C78.1219 15.8953 78.0779 15.81 78.0779 15.7626C78.0779 15.6015 77.1832 14.4737 76.7671 14.1136C75.9878 13.4218 75.4564 13.0995 73.871 12.3224C73.446 12.114 71.5064 11.4506 69.2658 10.7588C68.9292 10.6545 68.5132 10.5029 68.3536 10.427C68.1942 10.3512 68.0172 10.2944 67.9551 10.2944C67.8932 10.2944 67.6541 10.1901 67.4062 10.0575C67.1668 9.93425 66.9367 9.82052 66.8924 9.82052C66.8216 9.82052 66.2991 9.41301 65.9625 9.10974C65.6259 8.80649 65.325 8.07677 65.325 7.59343C65.325 6.82581 65.6967 6.25719 66.4761 5.85913C66.9456 5.61275 67.0164 5.60327 68.3803 5.61275C69.62 5.61275 69.9036 5.65065 70.6474 5.86861C72.1088 6.28561 72.9854 6.60782 73.7913 6.99639C73.9863 7.09116 74.1722 7.16698 74.2076 7.16698C74.2962 7.16698 75.7928 7.96305 76.0586 8.15257C76.2001 8.24736 76.3684 8.30422 76.4395 8.26629C76.5192 8.23787 76.8998 7.49867 77.2896 6.62678C77.6881 5.74541 78.2019 4.59872 78.4496 4.05852C78.8129 3.26245 78.8748 3.06345 78.7862 2.94972C78.6533 2.77914 77.3869 2.00201 77.0859 1.90724C76.9708 1.86934 76.8468 1.803 76.7936 1.76509C76.5103 1.52816 74.5088 0.807913 73.4282 0.552034C71.4178 0.0592316 71.1611 0.0308006 69.1329 0.00236969C68.0348 -0.00710845 66.8835 0.0118461 66.5647 0.0592315Z" fill="#003049"/>
<path d="M13.2857 34.7653C13.127 34.9655 13.1358 48.6792 13.2857 48.7841C13.4708 48.9083 15.9481 48.8795 16.0715 48.7459C16.2302 48.5742 16.2214 34.8989 16.0715 34.7557C15.8864 34.5935 13.4003 34.6028 13.2857 34.7653Z" fill="#003049"/>
<path d="M38.1381 34.7748C38.0674 34.8607 38.0499 36.798 38.0588 41.8559L38.0851 48.8128L39.3899 48.8414C40.1833 48.851 40.7563 48.8224 40.8623 48.7651C41.0298 48.6696 41.0384 48.5552 41.0384 46.1598C41.0384 44.7855 41.0737 43.4112 41.1266 43.1155C41.4265 41.0827 43.7362 40.5389 44.5737 42.2948C44.7237 42.6191 44.7412 42.8864 44.7412 45.6445C44.7412 47.8394 44.7678 48.66 44.8471 48.7459C44.9792 48.8891 47.4126 48.9083 47.6595 48.7651C47.8182 48.6696 47.827 48.5264 47.827 45.3962C47.827 42.4666 47.8093 42.0561 47.6506 41.3403C47.3597 40.0234 46.8218 39.2695 45.8432 38.7734C45.3584 38.5251 45.2261 38.5062 44.2563 38.5062C43.2514 38.5062 43.172 38.5251 42.6167 38.8019C42.2991 38.9641 41.8761 39.2791 41.6822 39.5081C41.0298 40.2336 41.0209 40.2048 41.0298 37.3418C41.0384 34.9655 41.0298 34.8319 40.8709 34.7365C40.5977 34.5839 38.2615 34.6124 38.1381 34.7748Z" fill="#003049"/>
<path d="M65.8651 34.7842C65.7506 34.9085 65.7328 35.7958 65.7328 41.7985C65.724 48.4787 65.7328 48.6696 65.8915 48.7651C66.0768 48.8702 68.3424 48.8987 68.5804 48.8032C68.7039 48.7555 68.7216 48.412 68.7216 45.988C68.7216 43.4304 68.7302 43.2013 68.9066 42.7338C69.1271 42.1135 69.4267 41.7604 69.9912 41.4454C70.8461 40.9779 71.8424 41.331 72.2568 42.2471C72.4596 42.6957 72.4685 42.772 72.4948 45.6541C72.5126 47.5914 72.5564 48.6507 72.6182 48.7366C72.7505 48.9083 75.2808 48.9179 75.3865 48.7366C75.4306 48.6792 75.4481 46.9137 75.4218 44.8047C75.3777 41.035 75.3688 40.9779 75.166 40.5101C74.8223 39.7276 74.3286 39.1646 73.6762 38.8211C73.1031 38.5158 73.059 38.5062 71.9836 38.5062C70.952 38.5062 70.8461 38.5251 70.3526 38.783C70.0616 38.926 69.6209 39.2697 69.3651 39.5273C69.1183 39.7946 68.8714 39.9757 68.8184 39.9471C68.748 39.8994 68.7216 39.0884 68.7216 37.3706C68.7216 35.5573 68.695 34.8415 68.6157 34.7557C68.4481 34.5743 66.0415 34.6028 65.8651 34.7842Z" fill="#003049"/>
<path d="M5.50125 35.4427C2.85642 35.8723 0.996221 37.5231 0.193955 40.157C0.0264483 40.7011 0 41.0064 0 42.1802C0.00881613 43.4112 0.0352644 43.6403 0.238035 44.2798C0.696474 45.7304 1.56045 46.9804 2.64483 47.7631C3.05037 48.0589 3.27959 48.1829 4.22291 48.6219C4.7078 48.8414 6.27709 48.9654 7.28212 48.8606C8.63098 48.7174 9.75063 48.1733 11.0907 47.0188C11.267 46.8564 11.4169 46.6657 11.4169 46.5987C11.4169 46.3889 9.90932 44.6615 9.73299 44.6615C9.64483 44.6615 9.54786 44.6996 9.5214 44.757C9.4685 44.8428 8.80731 45.3199 8.33124 45.6064C7.94332 45.8448 7.06172 46.0931 6.61208 46.0931C6.0655 46.0931 5.22795 45.8259 4.75188 45.4917C4.21412 45.129 3.60579 44.318 3.35013 43.6307C3.16498 43.1251 3.1209 42.8674 3.1209 42.0849C3.1209 41.2929 3.15616 41.0638 3.35895 40.5101C3.68515 39.6322 4.3816 38.8593 5.21033 38.4488C5.78338 38.172 5.87153 38.1627 6.70026 38.1912C7.52015 38.2197 7.62594 38.2485 8.24308 38.5825C8.60454 38.783 9.06297 39.1169 9.25692 39.3268C9.45971 39.5273 9.67129 39.6991 9.75063 39.6991C9.9005 39.6991 11.4169 37.7618 11.4169 37.5613C11.4169 37.3514 10.4471 36.5689 9.65365 36.1489C8.43703 35.5 6.83249 35.2328 5.50125 35.4427Z" fill="#003049"/>
<path d="M57.349 35.5C56.1412 35.8054 55.4184 36.2254 54.8101 36.9791C53.6728 38.3822 53.7785 40.6341 55.0303 41.8367C55.7093 42.4762 56.4058 42.7911 58.7156 43.459C59.9499 43.8217 60.611 44.3943 60.611 45.1101C60.611 45.549 60.0556 46.1502 59.5883 46.2075C58.213 46.3985 56.4322 45.8259 54.9776 44.7188C54.7219 44.5279 54.4839 44.3943 54.4486 44.4228C54.4045 44.4516 54.1665 44.9002 53.9197 45.425C53.6728 45.9595 53.4171 46.4651 53.3641 46.5702C53.2848 46.7038 53.2848 46.7801 53.3818 46.9041C53.5316 47.1047 54.2459 47.5914 54.8364 47.8967C55.0833 48.0208 55.3479 48.164 55.4359 48.2115C55.5241 48.2592 55.9385 48.412 56.3617 48.5552C57.0846 48.7936 57.2344 48.8128 58.8479 48.8128C60.4523 48.8128 60.611 48.7936 61.184 48.5742C61.9069 48.3069 62.7268 47.725 63.0708 47.2476C63.6527 46.4174 63.7232 46.2075 63.7673 45.1386C63.7848 44.5756 63.7584 43.9649 63.7054 43.7454C63.3881 42.4855 62.0833 41.4454 60.1261 40.892C58.3894 40.4146 57.5165 39.9282 57.3403 39.346C57.1639 38.7446 57.4724 38.2485 58.1514 38.0768C58.8654 37.8858 60.5935 38.2579 61.5455 38.7923C61.6866 38.8689 61.8453 38.9356 61.8983 38.9356C61.951 38.9356 62.101 39.0214 62.2331 39.1361C62.3654 39.2409 62.5152 39.3172 62.577 39.2887C62.6386 39.2695 62.9385 38.7161 63.2383 38.0672L63.7936 36.8839L63.5027 36.6166C63.344 36.4734 63.1149 36.3206 62.9914 36.2921C62.868 36.2635 62.6916 36.1777 62.5948 36.1107C62.3479 35.9486 60.9549 35.5477 60.1879 35.4141C59.2975 35.2709 58.1337 35.2997 57.349 35.5Z" fill="#003049"/>
<path d="M30.6884 36.3206C30.662 36.4065 30.6354 36.9983 30.6354 37.6472C30.6354 39.0025 30.6091 39.0596 29.9567 39.0214C29.7187 39.0118 29.4807 39.031 29.4188 39.0692C29.2779 39.1646 29.269 40.9491 29.41 41.1019C29.4718 41.1686 29.6834 41.1878 29.9655 41.1592C30.2917 41.1208 30.4504 41.1496 30.5209 41.2355C30.5913 41.331 30.6354 42.2279 30.6532 44.0889L30.6795 46.8086L30.9175 47.2858C31.2174 47.8967 31.72 48.4216 32.2223 48.6504C33.0334 49.0323 34.7615 48.9846 35.7048 48.5646C36.1983 48.3451 36.2072 48.3357 36.1631 48.0016C36.0838 47.429 35.8017 46.3985 35.6782 46.2648C35.59 46.1694 35.4932 46.1694 35.1759 46.2648C34.3382 46.5033 33.9152 46.3601 33.6769 45.74C33.5712 45.4728 33.5449 44.9479 33.5449 43.3637V41.3214L33.7829 41.2163C33.9063 41.1686 34.4441 41.1304 34.9642 41.14C35.4843 41.1496 35.9517 41.1208 36.0044 41.0923C36.1545 40.9872 36.1367 39.1358 35.9869 39.0692C35.9251 39.05 35.3873 39.0118 34.7878 39.0025C33.9679 38.9929 33.6947 38.9547 33.6331 38.8497C33.5976 38.7734 33.5535 38.172 33.5535 37.5135C33.5449 36.6833 33.5096 36.3017 33.4301 36.2443C33.3773 36.2062 32.7424 36.1681 32.0373 36.1681C30.9353 36.1681 30.7325 36.187 30.6884 36.3206Z" fill="#003049"/>
<path d="M22.1378 38.5539C20.6743 38.7542 19.1844 39.8039 18.6025 41.035C17.8443 42.6575 17.8267 44.6807 18.5584 46.2361C19.0345 47.2476 20.0042 48.1352 21.1151 48.5838C21.644 48.7936 21.8204 48.8128 23.231 48.8128C24.8884 48.8128 24.9236 48.8032 26.052 48.2115C26.6428 47.8967 27.5155 46.971 27.8331 46.3126C28.1593 45.6349 28.4325 44.4228 28.4325 43.6403C28.4236 42.9152 28.1415 41.6841 27.8242 41.035C27.5862 40.5483 26.7838 39.6514 26.2725 39.2983C25.6201 38.8497 24.6768 38.5729 23.6718 38.5158C23.1604 38.4966 22.4728 38.5062 22.1378 38.5539ZM23.8657 41.1115C24.3858 41.3118 24.8443 41.7796 25.1264 42.3807C25.3117 42.772 25.3469 42.9722 25.3469 43.7262C25.3469 44.4612 25.3117 44.6996 25.1353 45.0909C24.8795 45.6827 24.5533 46.0166 23.998 46.2742C23.2221 46.6369 22.4022 46.4651 21.7939 45.8259C21.1944 45.2055 21.0798 44.8524 21.0798 43.7072C21.0798 42.7624 21.0975 42.6765 21.3443 42.2375C21.6793 41.6364 22.1289 41.2451 22.6667 41.0827C23.231 40.9206 23.3631 40.9206 23.8657 41.1115Z" fill="#003049"/>
<path d="M80.5353 38.5633C79.9622 38.6398 78.9573 38.9356 78.4635 39.1646C78.3226 39.2409 78.0932 39.3364 77.9611 39.3937C77.82 39.4604 77.7143 39.5655 77.7143 39.6418C77.7143 39.8421 78.3226 41.3403 78.4724 41.5123C78.587 41.6364 78.6311 41.6364 78.8868 41.4836C79.8565 40.8728 81.6726 40.6437 82.3779 41.0256C82.8276 41.2833 83.1801 41.7985 83.1801 42.209C83.1801 42.3903 83.1274 42.581 83.0744 42.6383C83.0039 42.6957 82.1752 42.7528 81.0643 42.7719C79.3101 42.8101 79.1337 42.8293 78.7281 43.0392C77.7584 43.5163 77.2821 44.1462 77.0882 45.2055C76.9914 45.6922 76.9914 45.9211 77.0882 46.3985C77.3703 47.8871 78.296 48.7747 79.742 48.8987C81.0115 49.0227 82.1488 48.727 82.7571 48.1162C83.0744 47.8013 83.2508 47.8967 83.2861 48.4024L83.3124 48.8128L84.6261 48.8414C85.5165 48.8606 85.975 48.8318 86.0543 48.7555C86.2393 48.5934 86.2305 42.0084 86.0454 41.1496C85.5869 39.05 83.6386 38.1339 80.5353 38.5633ZM83.189 44.6329C83.3124 44.986 83.2242 45.568 82.9862 45.9117C82.5191 46.5987 81.5053 46.99 80.7647 46.7609C79.9711 46.5225 79.6008 45.6541 79.9977 44.9764C80.2798 44.4897 80.5971 44.3943 81.9283 44.3847L83.0922 44.3753L83.189 44.6329Z" fill="#003049"/>
<path d="M93.7163 38.5539C93.1521 38.6779 92.4997 39.0788 92.103 39.5559C91.9002 39.8039 91.6797 39.9853 91.6181 39.9567C91.5477 39.9375 91.5124 39.718 91.5124 39.3268C91.5124 38.907 91.477 38.7161 91.3801 38.6494C91.239 38.5443 88.8321 38.5158 88.6119 38.611C88.4884 38.6587 88.4707 39.2028 88.4707 43.7072C88.4707 48.2115 88.4884 48.7555 88.6119 48.8032C88.8321 48.8891 91.2301 48.8699 91.3713 48.7747C91.477 48.7078 91.4947 48.2306 91.477 46.1216C91.4506 43.0296 91.477 42.8578 92.1207 42.1516C92.5263 41.7126 92.6672 41.6268 93.2666 41.4454C93.6458 41.331 94.0072 41.2641 94.0777 41.2926C94.1484 41.3214 94.2982 41.2737 94.4128 41.1878C94.6244 41.0446 94.6244 41.016 94.5892 39.9663C94.5714 39.3745 94.5273 38.7923 94.5098 38.6683C94.4569 38.4392 94.3334 38.4203 93.7163 38.5539Z" fill="#003049"/>
<path d="M99.2252 38.5635C98.4052 38.6683 97.4619 39.1361 96.7917 39.7658C96.5096 40.033 95.9984 40.7584 95.8045 41.1782C95.5399 41.7508 95.2578 43.0965 95.2578 43.7739C95.2578 44.7474 95.6545 46.0931 96.1746 46.9041C96.7124 47.7439 97.8585 48.536 98.8635 48.7747C99.5866 48.9369 101.905 48.8414 102.355 48.6315C103.563 48.0493 104.338 47.4671 104.338 47.1428C104.338 46.99 103.157 45.7208 102.928 45.6349C102.884 45.6157 102.707 45.7112 102.549 45.8448C102.037 46.2744 101.235 46.5702 100.618 46.5702C99.7187 46.5702 99.1456 46.1979 98.5287 45.2437C98.1231 44.6137 98.0965 44.6233 101.747 44.566L105 44.5183L104.991 43.4686C104.982 41.8844 104.576 40.7296 103.695 39.785C102.69 38.7161 101.156 38.2963 99.2252 38.5635ZM100.847 40.7584C101.35 40.911 101.747 41.3022 102.011 41.8844C102.196 42.3044 102.214 42.4474 102.143 42.6287L102.046 42.8482L100.221 42.8293L98.3875 42.8005L98.3611 42.5429C98.2993 41.9991 99.084 40.9206 99.6393 40.7869C99.7805 40.7584 99.9303 40.7203 99.9744 40.7011C100.16 40.6344 100.512 40.6533 100.847 40.7584Z" fill="#003049"/>
</g>
<defs>
<clipPath id="clip0_113_13">
<rect width="105" height="49" fill="white"/>
</clipPath>
</defs>
</svg>
