<svg width="30" height="30" viewBox="0 0 30 31" fill="none" xmlns="http://www.w3.org/2000/svg">
<g clip-path="url(#clip0_56_187)">
<path d="M0.375 5.8125C0.375 4.74082 1.32062 3.875 2.49107 3.875H27.8839C29.0544 3.875 30 4.74082 30 5.8125C30 6.88418 29.0544 7.75 27.8839 7.75H2.49107C1.32062 7.75 0.375 6.88418 0.375 5.8125ZM0.375 15.5C0.375 14.4283 1.32062 13.5625 2.49107 13.5625H27.8839C29.0544 13.5625 30 14.4283 30 15.5C30 16.5717 29.0544 17.4375 27.8839 17.4375H2.49107C1.32062 17.4375 0.375 16.5717 0.375 15.5ZM30 25.1875C30 26.2592 29.0544 27.125 27.8839 27.125H2.49107C1.32062 27.125 0.375 26.2592 0.375 25.1875C0.375 24.1158 1.32062 23.25 2.49107 23.25H27.8839C29.0544 23.25 30 24.1158 30 25.1875Z" fill="#003049"/>
<g clip-path="url(#clip1_56_187)">
<path d="M0.375 5.8125C0.375 4.74082 1.32062 3.875 2.49107 3.875H27.8839C29.0544 3.875 30 4.74082 30 5.8125C30 6.88418 29.0544 7.75 27.8839 7.75H2.49107C1.32062 7.75 0.375 6.88418 0.375 5.8125ZM0.375 15.5C0.375 14.4283 1.32062 13.5625 2.49107 13.5625H27.8839C29.0544 13.5625 30 14.4283 30 15.5C30 16.5717 29.0544 17.4375 27.8839 17.4375H2.49107C1.32062 17.4375 0.375 16.5717 0.375 15.5ZM30 25.1875C30 26.2592 29.0544 27.125 27.8839 27.125H2.49107C1.32062 27.125 0.375 26.2592 0.375 25.1875C0.375 24.1158 1.32062 23.25 2.49107 23.25H27.8839C29.0544 23.25 30 24.1158 30 25.1875Z" fill="#003049"/>
</g>
</g>
<defs>
<clipPath id="clip0_56_187">
<rect width="29.625" height="31" fill="white" transform="translate(0.375)"/>
</clipPath>
<clipPath id="clip1_56_187">
<rect width="29.625" height="31" fill="white" transform="translate(0.375)"/>
</clipPath>
</defs>
</svg>
