<svg width="25" height="25" viewBox="0 0 24 25" fill="none" xmlns="http://www.w3.org/2000/svg">
<path d="M19.501 10.1548C19.501 12.3956 18.8025 14.4657 17.6259 16.1451L23.5605 22.3307C24.1465 22.941 24.1465 23.932 23.5605 24.5423C22.9746 25.1526 22.0229 25.1526 21.437 24.5423L15.5023 18.3567C13.8897 19.587 11.9021 20.3095 9.75048 20.3095C4.36428 20.3095 0 15.7643 0 10.1548C0 4.54523 4.36428 0 9.75048 0C15.1367 0 19.501 4.54523 19.501 10.1548ZM9.75048 17.185C10.6369 17.185 11.5147 17.0031 12.3337 16.6498C13.1527 16.2965 13.8969 15.7787 14.5237 15.1259C15.1505 14.4731 15.6477 13.6981 15.987 12.8451C16.3262 11.9922 16.5008 11.078 16.5008 10.1548C16.5008 9.23154 16.3262 8.31736 15.987 7.46441C15.6477 6.61147 15.1505 5.83646 14.5237 5.18365C13.8969 4.53083 13.1527 4.01299 12.3337 3.65969C11.5147 3.30638 10.6369 3.12454 9.75048 3.12454C8.86401 3.12454 7.98622 3.30638 7.16724 3.65969C6.34825 4.01299 5.6041 4.53083 4.97727 5.18365C4.35045 5.83646 3.85322 6.61147 3.51398 7.46441C3.17475 8.31736 3.00015 9.23154 3.00015 10.1548C3.00015 11.078 3.17475 11.9922 3.51398 12.8451C3.85322 13.6981 4.35045 14.4731 4.97727 15.1259C5.6041 15.7787 6.34825 16.2965 7.16724 16.6498C7.98622 17.0031 8.86401 17.185 9.75048 17.185Z" fill="#D62828"/>
</svg>
