<svg width="31" height="31" viewBox="0 0 31 31" fill="none" xmlns="http://www.w3.org/2000/svg">
<g clip-path="url(#clip0_69_43)">
<path d="M31.0008 12.6305C27.9544 12.6368 24.9827 11.8107 22.5055 10.2688V21.0225C22.5047 23.0142 21.8046 24.9582 20.4989 26.5946C19.1932 28.231 17.3441 29.4817 15.1988 30.1796C13.0535 30.8775 10.7144 30.9892 8.49413 30.4998C6.27388 30.0105 4.27834 28.9434 2.77435 27.4412C1.27037 25.9391 0.329622 24.0734 0.0779049 22.0938C-0.173812 20.1141 0.2755 18.1148 1.36576 16.3632C2.45602 14.6116 4.13526 13.1912 6.17895 12.2919C8.22264 11.3926 10.5333 11.0573 12.8021 11.3308V16.7395C11.7639 16.4556 10.6491 16.4641 9.61683 16.764C8.58456 17.0638 7.68764 17.6396 7.05417 18.4092C6.42069 19.1787 6.08305 20.1027 6.08946 21.049C6.09587 21.9954 6.44601 22.9158 7.08986 23.6788C7.73372 24.4418 8.63837 25.0084 9.67463 25.2977C10.7109 25.5869 11.8258 25.5841 12.86 25.2895C13.8943 24.9949 14.7951 24.4237 15.4337 23.6574C16.0724 22.8911 16.4163 21.9689 16.4162 21.0225V0H22.5055C22.5013 0.447153 22.5444 0.893697 22.6342 1.33399C22.8458 2.31687 23.2858 3.25188 23.9272 4.08183C24.5686 4.91178 25.398 5.61922 26.3646 6.16089C27.7398 6.95159 29.3521 7.37303 31.0008 7.37273V12.6305Z" fill="#FBFBFB"/>
</g>
<defs>
<clipPath id="clip0_69_43">
<rect width="31" height="31" fill="white"/>
</clipPath>
</defs>
</svg>
