<svg width="30" height="30" viewBox="0 0 30 31" fill="none" xmlns="http://www.w3.org/2000/svg">
<g clip-path="url(#clip0_56_189)">
<path d="M14.8125 15.5C17.0574 15.5 19.2103 14.6835 20.7977 13.2301C22.385 11.7767 23.2768 9.80543 23.2768 7.75C23.2768 5.69457 22.385 3.72333 20.7977 2.26992C19.2103 0.816516 17.0574 0 14.8125 0C12.5676 0 10.4147 0.816516 8.82735 2.26992C7.23998 3.72333 6.34821 5.69457 6.34821 7.75C6.34821 9.80543 7.23998 11.7767 8.82735 13.2301C10.4147 14.6835 12.5676 15.5 14.8125 15.5ZM11.7905 18.4062C5.27695 18.4062 0 23.2379 0 29.2018C0 30.1947 0.879492 31 1.96398 31H27.661C28.7455 31 29.625 30.1947 29.625 29.2018C29.625 23.2379 24.348 18.4062 17.8345 18.4062H11.7905Z" fill="#003049"/>
</g>
<defs>
<clipPath id="clip0_56_189">
<rect width="29.625" height="31" fill="white"/>
</clipPath>
</defs>
</svg>
