<svg width="31" height="31" viewBox="0 0 31 31" fill="none" xmlns="http://www.w3.org/2000/svg">
<g clip-path="url(#clip0_69_41)">
<path d="M15.5 6.20547C10.4694 6.20547 6.37991 10.2445 6.37299 15.213C6.37299 16.9147 6.85737 18.5754 7.77076 20.0037L7.98527 20.3455L7.06495 23.6669L10.5179 22.7716L10.85 22.9698C12.2478 23.7899 13.8531 24.2273 15.4931 24.2273H15.5C20.5237 24.2273 24.7239 20.1883 24.7239 15.2198C24.7239 12.8142 23.6721 10.552 21.9491 8.85031C20.2192 7.14175 17.9357 6.20547 15.5 6.20547ZM20.8627 19.0811C20.6344 19.7167 19.5411 20.2908 19.0152 20.366C18.1433 20.4958 17.4652 20.4275 15.7283 19.6894C12.9812 18.5139 11.1821 15.7802 11.0437 15.6025C10.9054 15.4248 9.92277 14.1332 9.92277 12.8005C9.92277 11.4678 10.6286 10.8117 10.8846 10.5384C11.1337 10.265 11.4312 10.1966 11.6181 10.1966C11.798 10.1966 11.9848 10.1966 12.144 10.2035C12.31 10.2103 12.5384 10.142 12.7598 10.6682C12.9882 11.2081 13.5348 12.5408 13.604 12.6775C13.6732 12.8142 13.7217 12.9713 13.6248 13.149C13.0989 14.1878 12.5384 14.1468 12.8221 14.6252C13.8808 16.4226 14.9395 17.0445 16.5518 17.8441C16.8286 17.9808 16.9877 17.9603 17.1469 17.7758C17.306 17.5981 17.8319 16.983 18.0118 16.7165C18.1917 16.4431 18.3786 16.491 18.6277 16.5798C18.8768 16.6686 20.2261 17.3247 20.5029 17.4614C20.7797 17.5981 20.9596 17.6664 21.0288 17.7758C21.0911 17.9056 21.0911 18.4524 20.8627 19.0811ZM27.6786 0H3.32143C1.48772 0 0 1.46936 0 3.28042V27.3369C0 29.1479 1.48772 30.6173 3.32143 30.6173H27.6786C29.5123 30.6173 31 29.1479 31 27.3369V3.28042C31 1.46936 29.5123 0 27.6786 0ZM15.4931 26.052C13.6525 26.052 11.8464 25.5941 10.248 24.733L4.42857 26.2434L5.98549 20.6257C5.02366 18.9854 4.51853 17.1197 4.51853 15.2061C4.52545 9.23302 9.44531 4.3739 15.4931 4.3739C18.427 4.3739 21.181 5.50154 23.2569 7.55181C25.3259 9.60207 26.5714 12.3221 26.5714 15.2198C26.5714 21.1929 21.5408 26.052 15.4931 26.052Z" fill="#FBFBFB"/>
</g>
<defs>
<clipPath id="clip0_69_41">
<rect width="31" height="31" fill="white"/>
</clipPath>
</defs>
</svg>
