<svg width="32" height="31" viewBox="0 0 32 31" fill="none" xmlns="http://www.w3.org/2000/svg">
<g clip-path="url(#clip0_69_39)">
<path d="M4.57143 0C2.05 0 0 1.96142 0 4.3739V26.2434C0 28.6559 2.05 30.6173 4.57143 30.6173H27.4286C29.95 30.6173 32 28.6559 32 26.2434V4.3739C32 1.96142 29.95 0 27.4286 0H4.57143ZM25.7929 5.74074L18.3786 13.8461L27.1 24.8765H20.2714L14.9286 18.1858L8.80714 24.8765H5.41429L13.3429 16.2039L4.97857 5.74074H11.9786L16.8143 11.8574L22.4 5.74074H25.7929ZM23.0929 22.9356L10.9571 7.57914H8.93571L21.2071 22.9356H23.0857H23.0929Z" fill="#FBFBFB"/>
</g>
<defs>
<clipPath id="clip0_69_39">
<rect width="32" height="31" fill="white"/>
</clipPath>
</defs>
</svg>
